<svg id="Capa_1" enable-background="new 0 0 512 512" height="512" viewBox="0 0 512 512" width="512" xmlns="http://www.w3.org/2000/svg" xmlns:xlink="http://www.w3.org/1999/xlink"><linearGradient id="SVGID_1_" gradientUnits="userSpaceOnUse" x1="256" x2="256" y1="512" y2="0"><stop offset="0" stop-color="#ffc2cc"/><stop offset="1" stop-color="#fff2f4"/></linearGradient><linearGradient id="SVGID_2_" gradientUnits="userSpaceOnUse" x1="224.184" x2="224.184" y1="470.674" y2="104.953"><stop offset="0" stop-color="#fd3a84"/><stop offset="1" stop-color="#ffa68d"/></linearGradient><g><g><g><path d="m330.561 143.412c6.87 4.585 16.216 2.71 20.786-4.204 4.585-6.899 2.71-16.201-4.204-20.786-65.068-43.228-152.461-34.438-207.817 20.903-64.336 64.336-64.336 169.014 0 233.35 64.338 64.338 169.014 64.336 233.35 0 55.327-55.342 64.116-142.749 20.903-207.817-4.585-6.914-13.901-8.833-20.786-4.204-6.914 4.585-8.789 13.887-4.204 20.786 35.347 53.232 28.14 124.746-17.124 170.024-52.646 52.646-138.281 52.646-190.928 0-52.632-52.646-52.632-138.281 0-190.928 45.263-45.264 116.791-52.485 170.024-17.124zm-74.561-143.412c-140.61 0-256 115.39-256 256 0 57.246 19.53 111.343 54.599 156.431 5.098 6.548 14.502 7.764 21.05 2.622 6.533-5.083 7.72-14.502 2.622-21.05-30.923-39.771-47.271-87.481-47.271-138.003 0-124.072 100.928-225 225-225s225 100.928 225 225-100.928 225-225 225c-50.522 0-98.247-16.348-138.003-47.285-6.548-5.112-15.967-3.896-21.05 2.622-5.083 6.548-3.911 15.967 2.622 21.05 45.088 35.068 99.17 54.613 156.431 54.613 140.61 0 256-115.39 256-256s-115.39-256-256-256z" fill="url(#SVGID_1_)"/></g></g><g><g><path d="m256 181c-41.353 0-75 33.647-75 75s33.647 75 75 75 75-33.647 75-75-33.647-75-75-75zm137.886-62.886c-17.549-17.549-46.084-17.549-63.633 0s-17.549 46.084 0 63.633 46.102 17.531 63.633 0c17.549-17.549 17.549-46.084 0-63.633zm-339.405 275.772c-17.549 17.549-17.549 46.084 0 63.633s46.102 17.531 63.633 0c17.549-17.549 17.549-46.084 0-63.633s-46.084-17.549-63.633 0z" fill="url(#SVGID_2_)"/></g></g></g></svg>